<svg width="124" height="32" viewBox="0 0 124 32" fill="none" xmlns="http://www.w3.org/2000/svg">
<path d="M58.496 24C58.4 24 58.32 23.968 58.256 23.904C58.192 23.84 58.16 23.76 58.16 23.664V6.12C58.16 6.024 58.192 5.944 58.256 5.88C58.32 5.816 58.4 5.784 58.496 5.784H59.696C59.792 5.784 59.872 5.816 59.936 5.88C60 5.944 60.032 6.024 60.032 6.12V12.096C60.448 11.44 60.992 10.944 61.664 10.608C62.336 10.272 63.08 10.104 63.896 10.104C64.808 10.104 65.608 10.296 66.296 10.68C66.984 11.048 67.512 11.576 67.88 12.264C68.264 12.936 68.456 13.728 68.456 14.64V23.664C68.456 23.76 68.424 23.84 68.36 23.904C68.296 23.968 68.216 24 68.12 24H66.92C66.824 24 66.744 23.968 66.68 23.904C66.616 23.84 66.584 23.76 66.584 23.664V15C66.584 13.96 66.304 13.176 65.744 12.648C65.2 12.12 64.488 11.856 63.608 11.856C62.568 11.856 61.712 12.2 61.04 12.888C60.368 13.576 60.032 14.552 60.032 15.816V23.664C60.032 23.76 60 23.84 59.936 23.904C59.872 23.968 59.792 24 59.696 24H58.496ZM75.818 24C74.858 24 73.978 23.768 73.178 23.304C72.394 22.824 71.77 22.192 71.306 21.408C70.842 20.608 70.61 19.728 70.61 18.768V15.336C70.61 14.36 70.842 13.48 71.306 12.696C71.77 11.912 72.394 11.288 73.178 10.824C73.978 10.344 74.858 10.104 75.818 10.104C76.778 10.104 77.65 10.344 78.434 10.824C79.218 11.288 79.842 11.912 80.306 12.696C80.786 13.48 81.026 14.36 81.026 15.336V16.968C81.026 17.208 80.938 17.416 80.762 17.592C80.602 17.752 80.402 17.832 80.162 17.832H72.482V18.888C72.482 19.496 72.626 20.056 72.914 20.568C73.218 21.08 73.618 21.488 74.114 21.792C74.626 22.08 75.194 22.224 75.818 22.224H79.298C79.394 22.224 79.474 22.256 79.538 22.32C79.602 22.384 79.634 22.464 79.634 22.56V23.664C79.634 23.76 79.602 23.84 79.538 23.904C79.474 23.968 79.394 24 79.298 24H75.818ZM72.482 16.104H79.154V15.216C79.154 14.592 79.002 14.032 78.698 13.536C78.41 13.024 78.01 12.624 77.498 12.336C77.002 12.032 76.442 11.88 75.818 11.88C75.194 11.88 74.626 12.032 74.114 12.336C73.618 12.624 73.218 13.024 72.914 13.536C72.626 14.032 72.482 14.592 72.482 15.216V16.104ZM86.375 24.312C85.559 24.312 84.831 24.16 84.191 23.856C83.567 23.536 83.071 23.088 82.703 22.512C82.351 21.936 82.175 21.272 82.175 20.52C82.175 19.464 82.535 18.592 83.255 17.904C83.975 17.216 84.967 16.784 86.231 16.608C86.615 16.544 86.975 16.496 87.311 16.464C87.663 16.416 88.007 16.368 88.343 16.32C88.679 16.272 89.015 16.224 89.351 16.176C89.815 16.096 90.151 15.936 90.359 15.696C90.567 15.456 90.671 15.104 90.671 14.64V14.448C90.671 13.664 90.367 13.04 89.759 12.576C89.151 12.112 88.407 11.88 87.527 11.88C86.807 11.88 86.183 12.024 85.655 12.312C85.143 12.6 84.743 12.984 84.455 13.464C84.327 13.672 84.167 13.776 83.975 13.776C83.879 13.776 83.775 13.736 83.663 13.656L83.015 13.224C82.871 13.096 82.799 12.96 82.799 12.816C82.799 12.752 82.823 12.672 82.871 12.576C83.319 11.824 83.943 11.224 84.743 10.776C85.559 10.328 86.503 10.104 87.575 10.104C88.551 10.104 89.407 10.288 90.143 10.656C90.879 11.008 91.455 11.512 91.871 12.168C92.287 12.808 92.495 13.568 92.495 14.448V23.664C92.495 23.76 92.463 23.84 92.399 23.904C92.335 23.968 92.255 24 92.159 24H91.151C90.927 24 90.815 23.888 90.815 23.664V22.008C90.319 22.728 89.687 23.296 88.919 23.712C88.151 24.112 87.303 24.312 86.375 24.312ZM86.567 22.632C87.399 22.632 88.127 22.416 88.751 21.984C89.375 21.552 89.863 21.024 90.215 20.4C90.567 19.76 90.743 19.152 90.743 18.576V17.592C90.263 17.64 89.815 17.696 89.399 17.76C88.983 17.808 88.535 17.872 88.055 17.952C87.591 18.016 87.031 18.096 86.375 18.192C84.775 18.432 83.975 19.184 83.975 20.448C83.975 21.104 84.215 21.632 84.695 22.032C85.175 22.432 85.799 22.632 86.567 22.632ZM96.9967 24C96.7567 24 96.5487 23.92 96.3727 23.76C96.2127 23.584 96.1327 23.376 96.1327 23.136V7.56H93.9007C93.8047 7.56 93.7247 7.528 93.6607 7.464C93.5967 7.4 93.5647 7.32 93.5647 7.224V6.12C93.5647 6.024 93.5967 5.944 93.6607 5.88C93.7247 5.816 93.8047 5.784 93.9007 5.784H97.1407C97.3807 5.784 97.5807 5.872 97.7407 6.048C97.9167 6.208 98.0047 6.408 98.0047 6.648V22.224H100.549C100.645 22.224 100.725 22.256 100.789 22.32C100.853 22.384 100.885 22.464 100.885 22.56V23.664C100.885 23.76 100.853 23.84 100.789 23.904C100.725 23.968 100.645 24 100.549 24H96.9967ZM106.737 24C105.937 24 105.257 23.832 104.697 23.496C104.153 23.16 103.737 22.72 103.449 22.176C103.177 21.616 103.041 21 103.041 20.328V12.168H101.457C101.361 12.168 101.281 12.136 101.217 12.072C101.153 12.008 101.121 11.928 101.121 11.832V10.752C101.121 10.656 101.153 10.576 101.217 10.512C101.281 10.448 101.361 10.416 101.457 10.416H103.041V7.896C103.041 7.8 103.073 7.72 103.137 7.656C103.201 7.592 103.281 7.56 103.377 7.56H104.577C104.673 7.56 104.753 7.592 104.817 7.656C104.881 7.72 104.913 7.8 104.913 7.896V10.416H109.137C109.233 10.416 109.313 10.448 109.377 10.512C109.441 10.576 109.473 10.656 109.473 10.752V11.856C109.473 11.952 109.441 12.032 109.377 12.096C109.313 12.16 109.233 12.192 109.137 12.192H104.913V20.112C104.913 20.736 105.097 21.24 105.465 21.624C105.849 21.992 106.345 22.184 106.953 22.2L109.137 22.224C109.233 22.224 109.313 22.256 109.377 22.32C109.441 22.384 109.473 22.464 109.473 22.56V23.664C109.473 23.76 109.441 23.84 109.377 23.904C109.313 23.968 109.233 24 109.137 24H106.737ZM112.098 24C112.002 24 111.922 23.968 111.858 23.904C111.794 23.84 111.762 23.76 111.762 23.664V6.12C111.762 6.024 111.794 5.944 111.858 5.88C111.922 5.816 112.002 5.784 112.098 5.784H113.298C113.394 5.784 113.474 5.816 113.538 5.88C113.602 5.944 113.634 6.024 113.634 6.12V12.096C114.05 11.44 114.594 10.944 115.266 10.608C115.938 10.272 116.682 10.104 117.498 10.104C118.41 10.104 119.21 10.296 119.898 10.68C120.586 11.048 121.114 11.576 121.482 12.264C121.866 12.936 122.058 13.728 122.058 14.64V23.664C122.058 23.76 122.026 23.84 121.962 23.904C121.898 23.968 121.818 24 121.722 24H120.522C120.426 24 120.346 23.968 120.282 23.904C120.218 23.84 120.186 23.76 120.186 23.664V15C120.186 13.96 119.906 13.176 119.346 12.648C118.802 12.12 118.09 11.856 117.21 11.856C116.17 11.856 115.314 12.2 114.642 12.888C113.97 13.576 113.634 14.552 113.634 15.816V23.664C113.634 23.76 113.602 23.84 113.538 23.904C113.474 23.968 113.394 24 113.298 24H112.098Z" fill="black"/>
<path d="M5.496 24.312C4.6 24.312 3.808 24.144 3.12 23.808C2.448 23.456 1.92 22.976 1.536 22.368C1.152 21.744 0.96 21.024 0.96 20.208C0.96 19.104 1.344 18.192 2.112 17.472C2.88 16.736 3.96 16.256 5.352 16.032C5.576 16 5.896 15.96 6.312 15.912C6.744 15.848 7.16 15.792 7.56 15.744C7.976 15.68 8.256 15.632 8.4 15.6C8.704 15.552 8.928 15.448 9.072 15.288C9.216 15.112 9.288 14.88 9.288 14.592V14.472C9.256 13.896 8.992 13.448 8.496 13.128C8 12.792 7.408 12.624 6.72 12.624C6.08 12.624 5.52 12.744 5.04 12.984C4.56 13.224 4.176 13.576 3.888 14.04C3.76 14.248 3.608 14.352 3.432 14.352C3.304 14.352 3.2 14.32 3.12 14.256L1.776 13.344C1.632 13.248 1.56 13.112 1.56 12.936C1.56 12.888 1.576 12.816 1.608 12.72C2.072 11.84 2.76 11.16 3.672 10.68C4.584 10.184 5.616 9.936 6.768 9.936C7.84 9.936 8.768 10.136 9.552 10.536C10.352 10.936 10.968 11.504 11.4 12.24C11.848 12.96 12.072 13.808 12.072 14.784V23.496C12.072 23.64 12.024 23.76 11.928 23.856C11.832 23.952 11.712 24 11.568 24H9.936C9.6 24 9.432 23.832 9.432 23.496V22.56C8.888 23.152 8.288 23.592 7.632 23.88C6.976 24.168 6.264 24.312 5.496 24.312ZM5.712 21.744C6.352 21.744 6.944 21.584 7.488 21.264C8.048 20.944 8.496 20.528 8.832 20.016C9.184 19.504 9.36 18.952 9.36 18.36V17.88C9.008 17.928 8.584 17.992 8.088 18.072C7.592 18.136 7.12 18.2 6.672 18.264C6.224 18.312 5.888 18.36 5.664 18.408C4.352 18.648 3.696 19.216 3.696 20.112C3.696 20.608 3.88 21.008 4.248 21.312C4.616 21.6 5.104 21.744 5.712 21.744ZM19.2767 24.312C18.3327 24.312 17.4527 24.064 16.6367 23.568C15.8367 23.056 15.1887 22.384 14.6927 21.552C14.2127 20.704 13.9727 19.784 13.9727 18.792V15.456C13.9727 14.464 14.2127 13.552 14.6927 12.72C15.1727 11.872 15.8127 11.2 16.6127 10.704C17.4287 10.192 18.3247 9.936 19.3007 9.936C19.9087 9.936 20.4927 10.032 21.0527 10.224C21.6287 10.4 22.1247 10.672 22.5407 11.04V6.12C22.5407 5.976 22.5887 5.856 22.6847 5.76C22.7807 5.664 22.9007 5.616 23.0447 5.616H24.9167C25.0607 5.616 25.1807 5.664 25.2767 5.76C25.3727 5.856 25.4207 5.976 25.4207 6.12V23.496C25.4207 23.64 25.3727 23.76 25.2767 23.856C25.1807 23.952 25.0607 24 24.9167 24H23.3567C23.2127 24 23.0927 23.952 22.9967 23.856C22.9007 23.76 22.8527 23.64 22.8527 23.496V22.344C22.4207 23 21.8927 23.496 21.2687 23.832C20.6607 24.152 19.9967 24.312 19.2767 24.312ZM19.6847 21.552C20.2127 21.552 20.6927 21.424 21.1247 21.168C21.5567 20.912 21.9007 20.568 22.1567 20.136C22.4127 19.704 22.5407 19.232 22.5407 18.72V15.528C22.5407 15 22.4127 14.528 22.1567 14.112C21.9007 13.68 21.5567 13.336 21.1247 13.08C20.6927 12.824 20.2127 12.696 19.6847 12.696C19.1727 12.696 18.7007 12.824 18.2687 13.08C17.8367 13.336 17.4927 13.68 17.2367 14.112C16.9807 14.528 16.8527 15 16.8527 15.528V18.72C16.8527 19.232 16.9807 19.704 17.2367 20.136C17.4927 20.568 17.8367 20.912 18.2687 21.168C18.7007 21.424 19.1727 21.552 19.6847 21.552ZM31.6663 24.312C30.7703 24.312 29.9783 24.144 29.2903 23.808C28.6183 23.456 28.0903 22.976 27.7063 22.368C27.3223 21.744 27.1303 21.024 27.1303 20.208C27.1303 19.104 27.5143 18.192 28.2823 17.472C29.0503 16.736 30.1303 16.256 31.5223 16.032C31.7463 16 32.0663 15.96 32.4823 15.912C32.9143 15.848 33.3303 15.792 33.7303 15.744C34.1463 15.68 34.4263 15.632 34.5703 15.6C34.8743 15.552 35.0983 15.448 35.2423 15.288C35.3863 15.112 35.4583 14.88 35.4583 14.592V14.472C35.4263 13.896 35.1623 13.448 34.6663 13.128C34.1703 12.792 33.5783 12.624 32.8903 12.624C32.2503 12.624 31.6903 12.744 31.2103 12.984C30.7303 13.224 30.3463 13.576 30.0583 14.04C29.9303 14.248 29.7783 14.352 29.6023 14.352C29.4743 14.352 29.3703 14.32 29.2903 14.256L27.9463 13.344C27.8023 13.248 27.7303 13.112 27.7303 12.936C27.7303 12.888 27.7463 12.816 27.7783 12.72C28.2423 11.84 28.9303 11.16 29.8423 10.68C30.7543 10.184 31.7863 9.936 32.9383 9.936C34.0103 9.936 34.9383 10.136 35.7223 10.536C36.5223 10.936 37.1383 11.504 37.5703 12.24C38.0183 12.96 38.2423 13.808 38.2423 14.784V23.496C38.2423 23.64 38.1943 23.76 38.0983 23.856C38.0023 23.952 37.8823 24 37.7383 24H36.1063C35.7703 24 35.6023 23.832 35.6023 23.496V22.56C35.0583 23.152 34.4583 23.592 33.8023 23.88C33.1463 24.168 32.4343 24.312 31.6663 24.312ZM31.8823 21.744C32.5223 21.744 33.1143 21.584 33.6583 21.264C34.2183 20.944 34.6663 20.528 35.0023 20.016C35.3543 19.504 35.5303 18.952 35.5303 18.36V17.88C35.1783 17.928 34.7543 17.992 34.2583 18.072C33.7623 18.136 33.2903 18.2 32.8423 18.264C32.3943 18.312 32.0583 18.36 31.8343 18.408C30.5223 18.648 29.8663 19.216 29.8663 20.112C29.8663 20.608 30.0503 21.008 30.4183 21.312C30.7863 21.6 31.2743 21.744 31.8823 21.744ZM41.151 24C41.007 24 40.887 23.952 40.791 23.856C40.695 23.76 40.647 23.64 40.647 23.496V10.752C40.647 10.608 40.695 10.488 40.791 10.392C40.887 10.296 41.007 10.248 41.151 10.248H43.023C43.167 10.248 43.287 10.296 43.383 10.392C43.479 10.488 43.527 10.608 43.527 10.752V12C44.007 11.296 44.559 10.776 45.183 10.44C45.823 10.104 46.487 9.936 47.175 9.936C48.055 9.936 48.831 10.144 49.503 10.56C50.191 10.976 50.735 11.568 51.135 12.336C51.599 11.584 52.199 11 52.935 10.584C53.687 10.152 54.495 9.936 55.359 9.936C56.303 9.936 57.111 10.152 57.783 10.584C58.455 11 58.975 11.584 59.343 12.336C59.711 13.088 59.895 13.968 59.895 14.976V23.496C59.895 23.64 59.847 23.76 59.751 23.856C59.655 23.952 59.535 24 59.391 24H57.519C57.375 24 57.255 23.952 57.159 23.856C57.063 23.76 57.015 23.64 57.015 23.496V15.336C57.015 14.488 56.823 13.84 56.439 13.392C56.055 12.928 55.503 12.696 54.783 12.696C53.839 12.696 53.087 13.008 52.527 13.632C51.983 14.24 51.711 15.08 51.711 16.152V23.496C51.711 23.64 51.663 23.76 51.567 23.856C51.471 23.952 51.351 24 51.207 24H49.335C49.191 24 49.071 23.952 48.975 23.856C48.879 23.76 48.831 23.64 48.831 23.496V15.336C48.831 14.488 48.639 13.84 48.255 13.392C47.871 12.928 47.319 12.696 46.599 12.696C45.655 12.696 44.903 13.008 44.343 13.632C43.799 14.24 43.527 15.08 43.527 16.152V23.496C43.527 23.64 43.479 23.76 43.383 23.856C43.287 23.952 43.167 24 43.023 24H41.151Z" fill="black"/>
</svg>
